<svg viewBox="0 0 32 31" fill="none" xmlns="http://www.w3.org/2000/svg">
<path d="M28.9455 10.6489C26.051 10.6489 24.8676 8.60194 26.3068 6.0912C27.1384 4.63592 26.6427 2.78085 25.1874 1.94927L22.4208 0.366059C21.1574 -0.385565 19.5262 0.062211 18.7746 1.32558L18.5987 1.62943C17.1594 4.14017 14.7926 4.14017 13.3373 1.62943L13.1614 1.32558C12.4418 0.062211 10.8106 -0.385565 9.54723 0.366059L6.78061 1.94927C5.32534 2.78085 4.82958 4.65192 5.66117 6.10719C7.11644 8.60194 5.93303 10.6489 3.03848 10.6489C1.37531 10.6489 0 12.0082 0 13.6874V16.502C0 18.1652 1.35932 19.5405 3.03848 19.5405C5.93303 19.5405 7.11644 21.5874 5.66117 24.0982C4.82958 25.5535 5.32534 27.4085 6.78061 28.2401L9.54723 29.8233C10.8106 30.575 12.4418 30.1272 13.1934 28.8638L13.3693 28.56C14.8086 26.0492 17.1754 26.0492 18.6307 28.56L18.8066 28.8638C19.5582 30.1272 21.1894 30.575 22.4528 29.8233L25.2194 28.2401C26.6747 27.4085 27.1704 25.5375 26.3388 24.0982C24.8836 21.5874 26.067 19.5405 28.9615 19.5405C30.6247 19.5405 32 18.1811 32 16.502V13.6874C31.984 12.0242 30.6247 10.6489 28.9455 10.6489ZM15.992 20.2921C13.1294 20.2921 10.7946 17.9573 10.7946 15.0947C10.7946 12.2321 13.1294 9.89729 15.992 9.89729C18.8546 9.89729 21.1894 12.2321 21.1894 15.0947C21.1894 17.9573 18.8546 20.2921 15.992 20.2921Z" fill="#8147FC"/>
</svg>
